{
  "accessors": [
    {
      "bufferView": 2,
      "componentType": 5126,
      "count": 3304,
      "max": [
        27.148962020874023,
        8.7767438888549805,
        77.196006774902344
      ],
      "min": [
        -27.148952484130859,
        -8.0896062850952148,
        -0.030314000323414803
      ],
      "type": "VEC3"
    },
    {
      "bufferView": 2,
      "byteOffset": 39648,
      "componentType": 5126,
      "count": 3304,
      "max": [
        0.99965834617614746,
        0.99989575147628784,
        0.99723774194717407
      ],
      "min": [
        -0.99985033273696899,
        -0.99990111589431763,
        -0.99825835227966309
      ],
      "type": "VEC3"
    },
    {
      "bufferView": 3,
      "componentType": 5126,
      "count": 3304,
      "max": [
        0.99999946355819702,
        0.9999927282333374,
        0.99998974800109863,
        1
      ],
      "min": [
        -0.9999808669090271,
        -0.99970906972885132,
        -0.99995887279510498,
        -1
      ],
      "type": "VEC4"
    },
    {
      "bufferView": 1,
      "componentType": 5126,
      "count": 3304,
      "max": [
        0.99854201078414917,
        0.99923497438430786
      ],
      "min": [
        0.00088399997912347317,
        0.00069499999517574906
      ],
      "type": "VEC2"
    },
    {
      "bufferView": 0,
      "componentType": 5125,
      "count": 15009,
      "max": [
        3303
      ],
      "min": [
        0
      ],
      "type": "SCALAR"
    },
    {
      "bufferView": 2,
      "byteOffset": 79296,
      "componentType": 5126,
      "count": 41,
      "max": [
        4.5825538635253906,
        -2.2270269393920898,
        73.624916076660156
      ],
      "min": [
        -4.5335140228271484,
        -7.729097843170166,
        67.858657836914062
      ],
      "type": "VEC3"
    },
    {
      "bufferView": 2,
      "byteOffset": 79788,
      "componentType": 5126,
      "count": 41,
      "max": [
        0.99281501770019531,
        -0.11965899914503098,
        0.11407703906297684
      ],
      "min": [
        -0.98574346303939819,
        -0.99713224172592163,
        0.00026000000070780516
      ],
      "type": "VEC3"
    },
    {
      "bufferView": 3,
      "byteOffset": 52864,
      "componentType": 5126,
      "count": 41,
      "max": [
        0.99999988079071045,
        0.99281513690948486,
        0.0011986253084614873,
        1
      ],
      "min": [
        0.11965902149677277,
        -0.99129319190979004,
        -0.0013695454690605402,
        1
      ],
      "type": "VEC4"
    },
    {
      "bufferView": 1,
      "byteOffset": 26432,
      "componentType": 5126,
      "count": 41,
      "max": [
        0.98439502716064453,
        0.97696501016616821
      ],
      "min": [
        0.015604999847710133,
        0.027452999725937843
      ],
      "type": "VEC2"
    },
    {
      "bufferView": 0,
      "byteOffset": 60036,
      "componentType": 5125,
      "count": 150,
      "max": [
        40
      ],
      "min": [
        0
      ],
      "type": "SCALAR"
    }
  ],
  "asset": {
    "extras": {
      "author": "3axap (https://sketchfab.com/3axapV)",
      "license": "CC-BY-4.0 (http://creativecommons.org/licenses/by/4.0/)",
      "source": "https://sketchfab.com/models/ae97d28b0b804528a1347bdd92aad65e",
      "title": "CT gign"
    },
    "generator": "Sketchfab-3.19.5",
    "version": "2.0"
  },
  "bufferViews": [
    {
      "buffer": 0,
      "byteLength": 60636,
      "byteOffset": 0,
      "name": "floatBufferViews",
      "target": 34963
    },
    {
      "buffer": 0,
      "byteLength": 26760,
      "byteOffset": 60636,
      "byteStride": 8,
      "name": "floatBufferViews",
      "target": 34962
    },
    {
      "buffer": 0,
      "byteLength": 80280,
      "byteOffset": 87396,
      "byteStride": 12,
      "name": "floatBufferViews",
      "target": 34962
    },
    {
      "buffer": 0,
      "byteLength": 53520,
      "byteOffset": 167676,
      "byteStride": 16,
      "name": "floatBufferViews",
      "target": 34962
    }
  ],
  "buffers": [
    {
      "byteLength": 221196,
      "uri": "scene.bin"
    }
  ],
  "extensionsRequired": [
    "KHR_materials_pbrSpecularGlossiness"
  ],
  "extensionsUsed": [
    "KHR_materials_pbrSpecularGlossiness"
  ],
  "images": [
    {
      "uri": "textures/ct_gign_glass_diffuse.png"
    },
    {
      "uri": "textures/ct_gign_glass_specularGlossiness.png"
    },
    {
      "uri": "textures/ct_gign_diffuse.png"
    },
    {
      "uri": "textures/ct_gign_specularGlossiness.png"
    }
  ],
  "materials": [
    {
      "doubleSided": true,
      "emissiveFactor": [
        0,
        0,
        0
      ],
      "extensions": {
        "KHR_materials_pbrSpecularGlossiness": {
          "diffuseFactor": [
            1,
            1,
            1,
            1
          ],
          "diffuseTexture": {
            "index": 2,
            "texCoord": 0
          },
          "glossinessFactor": 0.31269054880000002,
          "specularFactor": [
            0,
            0,
            0
          ],
          "specularGlossinessTexture": {
            "index": 3,
            "texCoord": 0
          }
        }
      },
      "name": "ct_gign"
    },
    {
      "alphaMode": "BLEND",
      "doubleSided": true,
      "extensions": {
        "KHR_materials_pbrSpecularGlossiness": {
          "diffuseFactor": [
            0.1968368902,
            0.1968368902,
            0.1968368902,
            1
          ],
          "diffuseTexture": {
            "index": 0,
            "texCoord": 0
          },
          "glossinessFactor": 1,
          "specularFactor": [
            1,
            1,
            1
          ],
          "specularGlossinessTexture": {
            "index": 1,
            "texCoord": 0
          }
        }
      },
      "name": "ct_gign_glass"
    }
  ],
  "meshes": [
    {
      "primitives": [
        {
          "attributes": {
            "NORMAL": 1,
            "POSITION": 0,
            "TANGENT": 2,
            "TEXCOORD_0": 3
          },
          "indices": 4,
          "material": 0,
          "mode": 4
        }
      ]
    },
    {
      "primitives": [
        {
          "attributes": {
            "NORMAL": 6,
            "POSITION": 5,
            "TANGENT": 7,
            "TEXCOORD_0": 8
          },
          "indices": 9,
          "material": 1,
          "mode": 4
        }
      ]
    }
  ],
  "nodes": [
    {
      "children": [
        1
      ],
      "name": "RootNode (gltf orientation matrix)",
      "rotation": [
        -0.70710678118654746,
        -0,
        -0,
        0.70710678118654757
      ]
    },
    {
      "children": [
        2
      ],
      "name": "RootNode (model correction matrix)"
    },
    {
      "children": [
        3,
        4
      ],
      "name": "asdasd.obj.cleaner.materialmerger.gles"
    },
    {
      "mesh": 0,
      "name": ""
    },
    {
      "mesh": 1,
      "name": ""
    }
  ],
  "samplers": [
    {
      "magFilter": 9729,
      "minFilter": 9987,
      "wrapS": 10497,
      "wrapT": 10497
    }
  ],
  "scene": 0,
  "scenes": [
    {
      "name": "OSG_Scene",
      "nodes": [
        0
      ]
    }
  ],
  "textures": [
    {
      "sampler": 0,
      "source": 0
    },
    {
      "sampler": 0,
      "source": 1
    },
    {
      "sampler": 0,
      "source": 2
    },
    {
      "sampler": 0,
      "source": 3
    }
  ]
}

